<?xml version="1.0" encoding="UTF-8"?>
<svg viewBox="0 0 52.963348 52.963348" xmlns="http://www.w3.org/2000/svg">
 <defs>
  <linearGradient id="c" x1="314.57" x2="332.02" y1="369.98" y2="387.44" gradientUnits="userSpaceOnUse">
   <stop stop-color="#0f0" offset="0"/>
   <stop stop-color="#226122" offset="1"/>
  </linearGradient>
  <linearGradient id="b" x1="210.25" x2="182.17" y1="229.4" y2="231.97" gradientUnits="userSpaceOnUse">
   <stop stop-color="#fff" stop-opacity=".72656" offset="0"/>
   <stop stop-color="#fff" offset="1"/>
  </linearGradient>
  <linearGradient id="a" x1="302.74" x2="311.27" y1="377.95" y2="390.78" gradientTransform="matrix(1.9519 0 0 1.8418 -426.22 -488.52)" gradientUnits="userSpaceOnUse">
   <stop stop-color="#fff" offset="0"/>
   <stop stop-color="#fff" stop-opacity="0" offset="1"/>
  </linearGradient>
 </defs>
 <g transform="translate(-164.6 -201.82)">
  <path transform="matrix(1.8961 0 0 1.8961 -426.22 -488.52)" d="m339.54 378.06a13.967 13.967 0 1 1 -27.933 0 13.967 13.967 0 1 1 27.933 0z" fill="#226122"/>
  <path transform="matrix(1.7312 0 0 1.7312 -372.54 -426.19)" d="m339.54 378.06a13.967 13.967 0 1 1 -27.933 0 13.967 13.967 0 1 1 27.933 0z" fill="url(#c)" stroke="#fff" stroke-width=".32492"/>
  <path d="m173.97809,230.81101c-.22285.22282-.18093.57323.04188.79604l13.52774,14.18788 22.5326-25.48658c.22285-.22283.22281-.53132 0-.75414l-5.02769-5.02769c-.22284-.22284-.58637-.27716-.79604-.04191l-16.82943,18.88214-7.58343-7.58343c-.22282-.22285-.61512-.22285-.83794,0l-5.02769,5.02769z" fill="url(#b)"/>
  <path d="m191.07 204.13c-13.347 0-24.175 10.828-24.175 24.175 0 6.4126 2.6169 12.143 6.6955 16.472 2.1188-17.5 16.89-31.107 34.959-31.107 0.48721 0 0.93961 0.09896 1.422 0.1185-4.4214-5.7507-11.092-9.6581-18.901-9.6581z" fill="url(#a)"/>
 </g>
</svg>
