<?xml version="1.0" encoding="utf-8" standalone="no"?>
<!DOCTYPE svg PUBLIC "-//W3C//DTD SVG 1.1//EN" "http://www.w3.org/Graphics/SVG/1.1/DTD/svg11.dtd">
<svg xmlns="http://www.w3.org/2000/svg" width="601" height="601" fill="#fff">
	<path d="m0.5,424.5v-248l176-176h248l176,176v248l-176,176h-248z" stroke="#000"/>
	<path d="m17,417v-235l166-166h235l166,166v235l-166,166h-235z" fill="red"/>
	<path d="m163.9,345.9c0,8.1-1.5,15.7-4.4,22.8s-7,13.2-12.1,18.4c-5.2,5.1-11.1,9.3-17.9,12.3-6.8,3.1-14.1,4.7-22,4.7-8.9,0-16.89-1.7-23.96-5.1s-13.04-8-17.89-13.7c-4.85-5.8-8.59-12.5-11.22-20-2.63-7.6-3.94-15.5-3.94-23.6h28.5c0,4.2,0.56,8.3,1.67,12.4s2.83,7.7,5.15,11c2.33,3.3,5.26,5.9,8.8,7.9s7.79,3,12.89,3c3.8,0,7.5-0.8,11.1-2.4,3.5-1.6,6.5-3.8,9.1-6.5,2.5-2.8,4.5-6.1,6-9.7,1.5-3.7,2.3-7.6,2.3-11.5,0-5.8-1.1-11.1-3.6-15.4-6.2-10.7-16.1-17.2-24.8-22.7-4.5-2.9-11.93-7.8-22.24-14.8-8.29-5.5-14.5-12.1-18.65-19.5-4.14-7.5-6.22-15.7-6.22-24.6,0-7.2,1.32-13.9,3.94-20.2,2.63-6.3,6.32-11.8,11.07-16.6,4.75-4.7,10.26-8.5,16.53-11.2,6.27-2.6,13.07-4,20.27-4,7.3,0,14,1.3,20.2,3.9s11.5,6.2,16.1,10.7c4.5,4.6,8.2,10.1,10.9,16.5,2.7,6.3,4.2,13.3,4.4,20.9h-27.9c-0.4-7-2.8-12.6-7.3-16.8-4.4-4.1-9.9-6.2-16.4-6.2-6.6,0-12.3,2.2-16.93,6.5-4.65,4.4-6.98,9.9-6.98,16.5,0,4.9,1.32,9.1,3.95,12.5,2.62,3.4,7.66,7.2,15.16,11.3,19.6,11.2,33.9,22.5,42.9,34.1,9,11.5,13.5,24.5,13.5,39.1z
	M241.2,227.1v173.4h-29.4v-173.4h-37v-26.6h103.4v26.6z
	M411.9,300.2c0,15.3-0.8,28.4-2.5,39.1-1.8,10.7-4.7,20.9-9,30.4-5.1,12-11.4,20.7-18.9,26.2-7.6,5.4-17.2,8.2-28.7,8.2-12.1,0-22-2.8-29.6-8.2-7.6-5.5-13.9-14.2-18.9-26.2-4.3-9.7-7.2-19.9-9-30.5-1.7-10.7-2.5-23.7-2.5-39,0-15.1,0.8-28.1,2.5-39,1.8-10.8,4.7-21,9-30.6,5.2-11.9,11.7-20.5,19.2-25.8,7.6-5.2,17.4-7.9,29.3-7.9,11.7,0,21.3,2.7,28.8,7.9,7.5,5.3,13.7,14.1,18.8,26.4,2,5,3.8,10,5.3,15,1.5,4.9,2.7,10.2,3.7,15.6,0.9,5.5,1.5,11.4,1.9,17.7,0.4,6.2,0.6,13.1,0.6,20.7zm-27.9,0c0-5.6-0.1-10.7-0.4-15.2-0.3-4.6-0.7-8.8-1.2-12.7s-1.2-7.6-2-11.2-1.7-7.2-2.7-10.7c-2.7-9-6-15.5-9.9-19.5-3.9-3.9-8.9-5.9-15-5.9-12.5,0-21.1,8.2-25.8,24.7-2.4,7.6-4.1,15.2-5,22.9-0.9,7.6-1.3,17-1.3,28.2,0,5.4,0.1,10.3,0.4,14.8,0.3,4.4,0.7,8.6,1.2,12.5s1.2,7.7,2,11.5,1.7,7.7,2.7,11.6c4.7,16.6,13.3,24.8,25.8,24.8,6.1,0,11.1-2,15-6,3.9-3.9,7.2-10.2,9.9-18.8,1.2-3.9,2.2-7.8,3-11.4,0.8-3.7,1.5-7.6,2-11.5,0.5-4,0.8-8.3,1-12.7,0.2-4.5,0.3-9.6,0.3-15.4z
	M550.5,256.6c0,18.3-4.6,32.3-13.8,41.8-9.2,9.6-22.4,14.3-39.6,14.3h-31.5v87.8h-29.1v-200h60.6c7.9,0,15.1,1.3,21.7,4s12.2,6.5,17,11.4c4.7,4.8,8.4,10.8,10.9,17.7,2.5,7,3.8,14.7,3.8,23zm-28.5,0c0-8.3-2.4-15.1-7.3-20.3-4.8-5.2-11.2-7.7-19.1-7.7h-30v56.7h30c8.5,0,15-2.5,19.6-7.5,4.5-5,6.8-12,6.8-21.2z"/>
</svg>